<svg width="17" height="20" viewBox="0 0 17 20" fill="none" xmlns="http://www.w3.org/2000/svg">
<path d="M10.905 7.86625C10.905 7.86625 11.8375 2.38125 8.03251 0C7.91785 1.90607 6.99683 3.6731 5.50001 4.85875C3.87501 6.2875 0.818755 9.5 0.851255 12.925C0.82744 15.9116 2.49915 18.6534 5.16501 20C5.25933 18.6645 5.88738 17.4233 6.90751 16.5562C7.77189 15.8915 8.33306 14.9074 8.465 13.825C10.7407 15.0348 12.2125 17.3521 12.34 19.9263V19.9425C14.8552 18.7904 16.5109 16.3241 16.625 13.56C16.895 10.3425 15.1325 5.9675 13.5688 4.5375C12.9784 5.85556 12.0616 7.00126 10.905 7.86625Z" fill="#FF0000"/>
</svg>
